<?xml version="1.0" standalone="no"?>
<!DOCTYPE svg PUBLIC "-//W3C//DTD SVG 20010904//EN"
 "http://www.w3.org/TR/2001/REC-SVG-20010904/DTD/svg10.dtd">
<svg version="1.0" xmlns="http://www.w3.org/2000/svg"
 width="512.000000pt" height="512.000000pt" viewBox="0 0 512.000000 512.000000"
 preserveAspectRatio="xMidYMid meet">
<metadata>
Created by potrace 1.11, written by Peter Selinger 2001-2013
</metadata>
<g transform="translate(0.000000,512.000000) scale(0.100000,-0.100000)"
fill="#000000" stroke="none">
<path d="M1715 5099 c-445 -92 -778 -439 -848 -884 -13 -78 -14 -230 -4 -310
29 -215 134 -429 290 -588 70 -71 148 -138 171 -146 6 -2 13 -7 16 -11 12 -17
161 -90 232 -114 116 -40 221 -56 351 -57 65 0 121 2 125 5 4 2 30 7 57 10 78
10 208 54 303 103 204 105 366 271 468 478 25 51 47 99 48 107 2 7 5 20 9 28
44 120 64 323 45 465 -55 423 -365 783 -768 894 -115 31 -125 32 -270 36 -102
2 -157 -2 -225 -16z"/>
<path d="M818 2540 c-208 -44 -366 -129 -518 -280 -91 -89 -143 -161 -196
-270 -32 -64 -70 -171 -79 -220 -3 -14 -8 -36 -12 -50 -4 -14 -8 -254 -10
-534 -5 -580 -5 -574 70 -624 l41 -27 977 -1 977 0 -27 55 c-47 94 -61 147
-65 250 -3 56 1 86 18 167 17 80 104 224 168 279 42 36 170 150 207 185 15 14
65 59 111 100 105 94 126 113 170 153 98 91 180 142 279 174 61 20 229 24 289
8 26 -7 54 -14 62 -16 8 -2 43 -19 78 -36 68 -35 82 -39 82 -22 0 17 57 94
100 135 54 52 146 112 193 126 20 6 37 15 37 21 0 15 -78 107 -144 170 -124
119 -293 210 -456 248 -25 6 -54 14 -65 17 -11 3 -510 7 -1110 8 -1023 2
-1095 2 -1177 -16z"/>
<path d="M3855 1702 c-39 -13 -82 -45 -97 -71 -12 -21 -43 -135 -63 -227 -2
-11 -13 -62 -25 -114 -12 -52 -23 -102 -25 -110 -1 -8 -8 -33 -13 -55 -6 -22
-13 -51 -15 -65 -3 -14 -12 -54 -21 -90 -15 -63 -154 -666 -161 -703 -2 -10
-6 -26 -9 -35 -43 -143 66 -266 198 -222 44 14 92 68 105 117 5 21 12 52 17
68 4 17 8 35 10 41 2 10 26 117 40 179 3 11 7 29 9 40 3 11 7 29 10 40 2 11
14 61 25 110 12 50 23 97 25 105 4 17 44 195 50 223 2 10 6 26 9 35 3 9 7 28
10 42 2 14 16 72 30 130 14 58 35 148 46 200 12 52 24 104 27 115 3 11 7 47
10 80 4 51 1 65 -19 94 -39 58 -118 91 -173 73z"/>
<path d="M4396 1488 c-78 -17 -126 -76 -126 -158 0 -58 19 -88 106 -166 42
-38 89 -80 104 -94 24 -22 73 -66 203 -182 l39 -34 -88 -79 c-98 -89 -153
-137 -203 -181 -82 -72 -142 -134 -152 -160 -48 -127 68 -251 197 -211 35 11
40 14 164 127 46 41 92 83 104 93 12 10 57 51 100 90 44 40 102 92 129 117
116 104 126 116 138 162 24 89 4 119 -191 293 -97 86 -147 131 -243 219 -164
148 -169 152 -213 165 -16 4 -46 4 -68 -1z"/>
<path d="M2960 1469 c-19 -12 -37 -24 -40 -28 -3 -3 -48 -44 -100 -91 -52 -47
-100 -89 -106 -95 -58 -53 -174 -156 -200 -179 -80 -68 -145 -136 -155 -162
-15 -42 -14 -96 4 -131 9 -16 51 -61 93 -99 42 -38 89 -80 104 -94 29 -26 49
-44 200 -180 52 -47 112 -101 133 -120 61 -56 110 -79 159 -74 106 12 171 109
139 206 -13 39 -31 59 -142 158 -46 41 -106 96 -134 121 -27 25 -70 63 -94 85
-82 73 -80 62 -19 118 31 28 88 80 128 116 82 73 83 74 169 150 78 68 104 115
97 175 -2 25 -12 58 -22 74 -39 67 -145 91 -214 50z"/>
</g>
</svg>
