<svg version="1.1" xmlns="http://www.w3.org/2000/svg" xmlns:xlink="http://www.w3.org/1999/xlink">
	<symbol id="phone" viewBox="0 0 384 384">
		<g>
			<g>
				<path d="M353.188,252.052c-23.51,0-46.594-3.677-68.469-10.906c-10.719-3.656-23.896-0.302-30.438,6.417l-43.177,32.594
					c-50.073-26.729-80.917-57.563-107.281-107.26l31.635-42.052c8.219-8.208,11.167-20.198,7.635-31.448
					c-7.26-21.99-10.948-45.063-10.948-68.583C132.146,13.823,118.323,0,101.333,0H30.813C13.823,0,0,13.823,0,30.813
					C0,225.563,158.438,384,353.188,384c16.99,0,30.813-13.823,30.813-30.813v-70.323C384,265.875,370.177,252.052,353.188,252.052z" />
			</g>
		</g>
	</symbol>
	<symbol id="eye" viewBox="0 0 511.999 511.999">
		<g>
			<g>
				<path d="M508.745,246.041c-4.574-6.257-113.557-153.206-252.748-153.206S7.818,239.784,3.249,246.035
					c-4.332,5.936-4.332,13.987,0,19.923c4.569,6.257,113.557,153.206,252.748,153.206s248.174-146.95,252.748-153.201
					C513.083,260.028,513.083,251.971,508.745,246.041z M255.997,385.406c-102.529,0-191.33-97.533-217.617-129.418
					c26.253-31.913,114.868-129.395,217.617-129.395c102.524,0,191.319,97.516,217.617,129.418
					C447.361,287.923,358.746,385.406,255.997,385.406z" />
			</g>
		</g>
		<g>
			<g>
				<path d="M255.997,154.725c-55.842,0-101.275,45.433-101.275,101.275s45.433,101.275,101.275,101.275
					s101.275-45.433,101.275-101.275S311.839,154.725,255.997,154.725z M255.997,323.516c-37.23,0-67.516-30.287-67.516-67.516
					s30.287-67.516,67.516-67.516s67.516,30.287,67.516,67.516S293.227,323.516,255.997,323.516z" />
			</g>
		</g>
	</symbol>
	<symbol id="flag" viewBox="0 0 512 512">
		<g>
			<g>
				<path d="M256,0C153.755,0,70.573,83.182,70.573,185.426c0,126.888,165.939,313.167,173.004,321.035
					c6.636,7.391,18.222,7.378,24.846,0c7.065-7.868,173.004-194.147,173.004-321.035C441.425,83.182,358.244,0,256,0z M256,469.729
					c-55.847-66.338-152.035-197.217-152.035-284.301c0-83.834,68.202-152.036,152.035-152.036s152.035,68.202,152.035,152.035
					C408.034,272.515,311.861,403.37,256,469.729z" />
			</g>
		</g>
		<g>
			<g>
				<path d="M256,92.134c-51.442,0-93.292,41.851-93.292,93.293s41.851,93.293,93.292,93.293s93.291-41.851,93.291-93.293
					S307.441,92.134,256,92.134z M256,245.328c-33.03,0-59.9-26.871-59.9-59.901s26.871-59.901,59.9-59.901s59.9,26.871,59.9,59.901
					S289.029,245.328,256,245.328z" />
			</g>
		</g>
	</symbol>
	<symbol id="security" viewBox="0 0 214.27 214.27">
		<g>
			<path d="M196.926,55.171c-0.11-5.785-0.215-11.25-0.215-16.537c0-4.142-3.357-7.5-7.5-7.5c-32.075,0-56.496-9.218-76.852-29.01
				c-2.912-2.832-7.546-2.831-10.457,0c-20.354,19.792-44.771,29.01-76.844,29.01c-4.142,0-7.5,3.358-7.5,7.5
				c0,5.288-0.104,10.755-0.215,16.541c-1.028,53.836-2.436,127.567,87.331,158.682c0.796,0.276,1.626,0.414,2.456,0.414
				c0.83,0,1.661-0.138,2.456-0.414C199.36,182.741,197.954,109.008,196.926,55.171z M107.131,198.812
				c-76.987-27.967-75.823-89.232-74.79-143.351c0.062-3.248,0.122-6.396,0.164-9.482c30.04-1.268,54.062-10.371,74.626-28.285
				c20.566,17.914,44.592,27.018,74.634,28.285c0.042,3.085,0.102,6.231,0.164,9.477C182.961,109.577,184.124,170.844,107.131,198.812
				z" />
			<path d="M132.958,81.082l-36.199,36.197l-15.447-15.447c-2.929-2.928-7.678-2.928-10.606,0c-2.929,2.93-2.929,7.678,0,10.607
				l20.75,20.75c1.464,1.464,3.384,2.196,5.303,2.196c1.919,0,3.839-0.732,5.303-2.196l41.501-41.5
				c2.93-2.929,2.93-7.678,0.001-10.606C140.636,78.154,135.887,78.153,132.958,81.082z" />
		</g>
	</symbol>
	<symbol id="settings" viewBox="0 0 174.248 174.248">
		<g>
			<path d="M173.145,73.91c-0.413-2.722-2.29-4.993-4.881-5.912l-13.727-4.881c-0.812-2.3-1.733-4.536-2.754-6.699l6.247-13.146
				c1.179-2.479,0.899-5.411-0.729-7.628c-5.265-7.161-11.556-13.452-18.698-18.693c-2.219-1.629-5.141-1.906-7.625-0.724
				l-13.138,6.242c-2.163-1.021-4.402-1.94-6.704-2.752l-4.883-13.729c-0.919-2.586-3.184-4.458-5.9-4.876
				c-9.65-1.483-16.792-1.483-26.457,0c-2.713,0.418-4.981,2.29-5.9,4.876l-4.883,13.729c-2.302,0.812-4.541,1.731-6.702,2.752
				l-13.143-6.242c-2.479-1.181-5.406-0.904-7.623,0.724c-7.142,5.241-13.433,11.532-18.698,18.693
				c-1.629,2.217-1.908,5.148-0.729,7.628l6.247,13.146c-1.021,2.159-1.94,4.4-2.754,6.699L5.982,68.003
				c-2.589,0.919-4.463,3.189-4.879,5.907c-0.749,4.92-1.099,9.115-1.099,13.219c0,4.098,0.35,8.299,1.099,13.219
				c0.413,2.722,2.29,4.993,4.881,5.912l13.727,4.881c0.814,2.304,1.736,4.541,2.754,6.704l-6.247,13.141
				c-1.179,2.479-0.899,5.411,0.727,7.623c5.258,7.156,11.549,13.447,18.7,18.698c2.217,1.629,5.144,1.911,7.625,0.724l13.138-6.242
				c2.163,1.021,4.402,1.94,6.704,2.752l4.883,13.729c0.919,2.586,3.184,4.458,5.9,4.876c4.828,0.744,9.154,1.104,13.228,1.104
				c4.074,0,8.401-0.36,13.228-1.104c2.715-0.418,4.981-2.29,5.9-4.876l4.883-13.729c2.302-0.812,4.541-1.731,6.704-2.752
				l13.138,6.242c2.484,1.186,5.411,0.904,7.628-0.724c7.159-5.26,13.45-11.551,18.698-18.698c1.626-2.212,1.906-5.144,0.727-7.623
				l-6.247-13.141c1.021-2.163,1.942-4.405,2.754-6.704l13.727-4.881c2.591-0.919,4.468-3.189,4.881-5.912
				c0.749-4.92,1.099-9.12,1.099-13.219S173.894,78.829,173.145,73.91z M158.949,93.72l-12.878,4.58
				c-2.251,0.797-3.982,2.625-4.66,4.92c-1.15,3.889-2.664,7.569-4.504,10.943c-1.142,2.1-1.213,4.619-0.187,6.777l5.841,12.285
				c-2.822,3.389-5.943,6.515-9.337,9.334l-12.283-5.834c-2.161-1.036-4.672-0.953-6.775,0.185c-3.379,1.838-7.061,3.35-10.953,4.502
				c-2.29,0.676-4.118,2.406-4.917,4.657l-4.582,12.883c-4.677,0.476-8.503,0.476-13.18,0l-4.582-12.883
				c-0.8-2.246-2.628-3.982-4.917-4.657c-3.894-1.152-7.579-2.664-10.953-4.502c-2.103-1.147-4.619-1.22-6.775-0.185l-12.283,5.839
				c-3.391-2.825-6.512-5.946-9.337-9.339l5.841-12.285c1.026-2.159,0.955-4.677-0.187-6.777c-1.835-3.364-3.35-7.049-4.504-10.948
				c-0.678-2.29-2.411-4.118-4.66-4.915l-12.878-4.58c-0.243-2.343-0.36-4.502-0.36-6.592s0.117-4.244,0.36-6.587l12.881-4.584
				c2.248-0.797,3.979-2.625,4.657-4.915c1.152-3.889,2.667-7.574,4.504-10.953c1.142-2.095,1.213-4.619,0.187-6.772l-5.841-12.285
				c2.827-3.393,5.948-6.519,9.337-9.339l12.288,5.839c2.151,1.036,4.677,0.953,6.775-0.185c3.372-1.838,7.054-3.35,10.948-4.502
				c2.29-0.676,4.118-2.411,4.917-4.657l4.582-12.883c4.633-0.481,8.466-0.481,13.18,0l4.582,12.883
				c0.8,2.246,2.628,3.982,4.917,4.657c3.894,1.152,7.579,2.664,10.953,4.502c2.103,1.147,4.614,1.22,6.775,0.185l12.283-5.839
				c3.389,2.82,6.51,5.946,9.337,9.339l-5.841,12.285c-1.026,2.154-0.955,4.677,0.187,6.772c1.843,3.389,3.357,7.069,4.504,10.948
				c0.678,2.295,2.409,4.123,4.66,4.92l12.878,4.58c0.243,2.343,0.36,4.502,0.36,6.592S159.192,91.377,158.949,93.72z" />
			<path d="M87.124,50.802c-19.062,0-34.571,15.508-34.571,34.571s15.508,34.571,34.571,34.571s34.571-15.508,34.571-34.571
				S106.186,50.802,87.124,50.802z M87.124,105.009c-10.827,0-19.636-8.809-19.636-19.636s8.809-19.636,19.636-19.636
				s19.636,8.809,19.636,19.636S97.951,105.009,87.124,105.009z" />
		</g>
	</symbol>
	<symbol id="search" viewBox="0 0 56.966 56.966">
		<path d="M55.146,51.887L41.588,37.786c3.486-4.144,5.396-9.358,5.396-14.786c0-12.682-10.318-23-23-23s-23,10.318-23,23
		s10.318,23,23,23c4.761,0,9.298-1.436,13.177-4.162l13.661,14.208c0.571,0.593,1.339,0.92,2.162,0.92
		c0.779,0,1.518-0.297,2.079-0.837C56.255,54.982,56.293,53.08,55.146,51.887z M23.984,6c9.374,0,17,7.626,17,17s-7.626,17-17,17
		s-17-7.626-17-17S14.61,6,23.984,6z" />
	</symbol>
</svg>
